<svg width="34" height="26" viewBox="0 0 34 26" fill="none" xmlns="http://www.w3.org/2000/svg">
<path d="M7.13038 10.7413C7.54278 8.28155 10.7831 5.65408 13.3164 5.59817C13.4931 5.59817 13.6699 5.54227 13.7877 5.43046C13.9055 5.37456 14.0233 5.31865 14.0823 5.15094C14.966 3.58563 14.4947 2.35575 13.0218 1.34948C11.3133 0.175502 8.60324 1.34948 7.24821 2.41165C3.83119 5.09504 0.355255 9.73496 0.531997 14.1515C-0.0571443 17.1144 0.060684 20.3009 0.944396 22.9284C1.53354 24.6055 3.24205 25.444 5.00947 25.5558C6.7769 25.6677 10.4296 26.1708 12.0203 25.1646C13.6109 24.1582 13.7288 22.2016 13.9055 20.5246C14.0823 18.6798 14.6125 15.2136 12.9629 13.7601C11.3133 12.3625 6.60015 13.8719 7.13038 10.7413Z" fill="#05021F"/>
<path d="M26.5719 10.7413C26.9843 8.28155 30.2244 5.65408 32.7578 5.59817C32.9346 5.59817 33.1113 5.54227 33.2292 5.43046C33.3471 5.37456 33.4648 5.31865 33.5238 5.15094C34.4075 3.58563 33.9362 2.35575 32.4634 1.34948C30.7549 0.175502 28.0448 1.34948 26.6897 2.41165C23.2727 5.09504 19.7967 9.73505 19.9735 14.1515C19.3843 17.1144 19.5022 20.3009 20.3858 22.9284C20.9749 24.6055 22.6834 25.444 24.4509 25.5558C26.2184 25.6677 29.871 26.1708 31.4617 25.1646C33.0523 24.1582 33.1702 22.2016 33.347 20.5246C33.5237 18.6798 34.054 15.2136 32.4044 13.7601C30.7548 12.3625 25.9827 13.8719 26.5719 10.7413Z" fill="#05021F"/>
</svg>
