<svg width="30" height="30" viewBox="0 0 30 30" fill="none" xmlns="http://www.w3.org/2000/svg">
<path d="M24.028 19.0852L20.853 18.7227C20.0905 18.6352 19.3405 18.8977 18.803 19.4352L16.503 21.7352C12.9655 19.9352 10.0655 17.0477 8.26553 13.4977L10.578 11.1852C11.1155 10.6477 11.378 9.89771 11.2905 9.13521L10.928 5.98521C10.778 4.72271 9.71553 3.77271 8.44053 3.77271H6.27803C4.86553 3.77271 3.69053 4.94771 3.77803 6.3602C4.44053 17.0352 12.978 25.5602 23.6405 26.2227C25.053 26.3102 26.228 25.1352 26.228 23.7227V21.5602C26.2405 20.2977 25.2905 19.2352 24.028 19.0852Z" fill="#1E1E1E"/>
</svg>
