<svg width="40" height="51" viewBox="0 0 40 51" fill="none" xmlns="http://www.w3.org/2000/svg">
<path d="M9.77083 40.9792H29.3125V38.9375H9.77083V40.9792ZM9.77083 29.3125H29.3125V27.2708H9.77083V29.3125ZM4.375 50.75C3.11111 50.75 2.06597 50.3368 1.23958 49.5104C0.413194 48.684 0 47.6389 0 46.375V4.375C0 3.11111 0.413194 2.06597 1.23958 1.23958C2.06597 0.413194 3.11111 0 4.375 0H27.2708L39.0833 11.8125V46.375C39.0833 47.6389 38.6701 48.684 37.8438 49.5104C37.0174 50.3368 35.9722 50.75 34.7083 50.75H4.375ZM26.25 12.8333V2.04167H4.375C3.79167 2.04167 3.25694 2.28472 2.77083 2.77083C2.28472 3.25694 2.04167 3.79167 2.04167 4.375V46.375C2.04167 46.9583 2.28472 47.4931 2.77083 47.9792C3.25694 48.4653 3.79167 48.7083 4.375 48.7083H34.7083C35.2917 48.7083 35.8264 48.4653 36.3125 47.9792C36.7986 47.4931 37.0417 46.9583 37.0417 46.375V12.8333H26.25Z" fill="#131313"/>
</svg>
