<svg width="46" height="46" viewBox="0 0 46 46" fill="none" xmlns="http://www.w3.org/2000/svg">
<path d="M42.3229 45.4583C37.7535 45.4583 33.0018 44.2552 28.0677 41.8489C23.1337 39.4427 18.5156 36.0764 14.2136 31.75C9.91148 27.4236 6.55731 22.8055 4.15106 17.8958C1.74481 12.9861 0.541687 8.24649 0.541687 3.67704C0.541687 2.78114 0.833354 2.03471 1.41669 1.43777C2.00002 0.84034 2.72919 0.541626 3.60419 0.541626H9.43752C10.2639 0.541626 10.9809 0.796834 11.5886 1.30725C12.1962 1.81767 12.6215 2.48607 12.8646 3.31246L14.1771 9.29163C14.3229 10.118 14.2986 10.8472 14.1042 11.4791C13.9097 12.1111 13.5695 12.6215 13.0834 13.0104L6.88544 18.625C8.14933 20.9097 9.52259 23.0121 11.0052 24.9323C12.4879 26.8524 14.0556 28.6632 15.7084 30.3645C17.4584 32.1145 19.3542 33.743 21.3959 35.25C23.4375 36.7569 25.6979 38.1909 28.1771 39.552L34.2292 33.3541C34.7153 32.8194 35.2379 32.4791 35.7969 32.3333C36.3559 32.1875 37 32.1632 37.7292 32.2604L42.6875 33.2812C43.5139 33.4757 44.1823 33.8889 44.6927 34.5208C45.2031 35.1527 45.4584 35.8819 45.4584 36.7083V42.3958C45.4584 43.2708 45.1596 44 44.5622 44.5833C43.9653 45.1666 43.2188 45.4583 42.3229 45.4583ZM5.93752 16.7291L11.7709 11.4791C12.0139 11.2847 12.1719 11.0173 12.2448 10.677C12.3177 10.3368 12.3056 10.0208 12.2084 9.72913L10.8959 3.74996C10.7986 3.36107 10.6285 3.0694 10.3854 2.87496C10.1424 2.68052 9.82641 2.58329 9.43752 2.58329H3.60419C3.31252 2.58329 3.06946 2.68052 2.87502 2.87496C2.68058 3.0694 2.58335 3.31246 2.58335 3.60413C2.58335 5.59718 2.88717 7.71177 3.49481 9.94788C4.10245 12.184 4.91669 14.4444 5.93752 16.7291ZM30.1459 40.5C32.1389 41.5208 34.29 42.2621 36.599 42.7239C38.908 43.1857 40.8403 43.4166 42.3959 43.4166C42.6875 43.4166 42.9306 43.3194 43.125 43.125C43.3195 42.9305 43.4167 42.6875 43.4167 42.3958V36.7083C43.4167 36.3194 43.3195 36.0034 43.125 35.7604C42.9306 35.5173 42.6389 35.3472 42.25 35.25L37.2917 34.2291C37 34.1319 36.7448 34.1198 36.5261 34.1927C36.3073 34.2656 36.0764 34.4236 35.8334 34.6666L30.1459 40.5Z" fill="#121212"/>
</svg>
