<svg width="44" height="51" viewBox="0 0 44 51" fill="none" xmlns="http://www.w3.org/2000/svg">
<path d="M21.6562 50.75C20.0035 50.75 18.4236 50.4097 16.9167 49.7292C15.4097 49.0486 14.1701 48.0521 13.1979 46.7396L0 29.0208L0.583333 28.3646C0.923611 27.9757 1.32465 27.7326 1.78646 27.6354C2.24826 27.5382 2.69792 27.6111 3.13542 27.8542L12.9792 32.5208V10.7917C12.9792 10.5024 13.0774 10.2601 13.2738 10.0647C13.4697 9.86879 13.7127 9.77083 14.0029 9.77083C14.2926 9.77083 14.5347 9.86879 14.7292 10.0647C14.9236 10.2601 15.0208 10.5024 15.0208 10.7917V35.8021L3.57292 30.4062L15.0937 45.7187C15.8715 46.7396 16.8438 47.493 18.0104 47.9792C19.1771 48.4653 20.3924 48.7083 21.6562 48.7083H33.1771C35.3646 48.7083 37.2118 47.967 38.7188 46.4844C40.2257 45.0017 40.9792 43.1667 40.9792 40.9792V31.0625C40.9792 29.7816 40.5458 28.708 39.6791 27.8418C38.8128 26.975 37.7392 26.5417 36.4583 26.5417H23.7708V24.5H36.4583C38.2812 24.5 39.8307 25.138 41.1068 26.4141C42.3828 27.6901 43.0208 29.2396 43.0208 31.0625V40.9741C43.0208 43.6997 42.0569 46.0104 40.129 47.9062C38.2015 49.8021 35.8842 50.75 33.1771 50.75H21.6562ZM4.66667 16.1875C4.18056 15.3611 3.81597 14.4951 3.57292 13.5895C3.32986 12.6834 3.20833 11.7508 3.20833 10.7917C3.20833 7.77778 4.25347 5.22569 6.34375 3.13542C8.43403 1.04514 10.9861 0 14 0C17.0139 0 19.566 1.04514 21.6562 3.13542C23.7465 5.22569 24.7917 7.77462 24.7917 10.7822C24.7917 11.7607 24.6701 12.6997 24.4271 13.599C24.184 14.4983 23.8194 15.3611 23.3333 16.1875L21.5833 15.1667C21.9722 14.4861 22.2639 13.7934 22.4583 13.0885C22.6528 12.3837 22.75 11.6181 22.75 10.7917C22.75 8.36111 21.8993 6.29514 20.1979 4.59375C18.4965 2.89236 16.4306 2.04167 14 2.04167C11.5694 2.04167 9.50347 2.89236 7.80208 4.59375C6.10069 6.29514 5.25 8.36111 5.25 10.7917C5.25 11.6181 5.34722 12.3837 5.54167 13.0885C5.73611 13.7934 6.02778 14.4861 6.41667 15.1667L4.66667 16.1875Z" fill="#1E1E1E"/>
</svg>
